<svg width="36" height="36" viewBox="0 0 36 36" fill="none" xmlns="http://www.w3.org/2000/svg">
<mask id="mask0_14_271" style="mask-type:luminance" maskUnits="userSpaceOnUse" x="10" y="3" width="15" height="13">
<path fill-rule="evenodd" clip-rule="evenodd" d="M10.8164 3H24.4094V15.4586H10.8164V3Z" fill="white"/>
</mask>
<g mask="url(#mask0_14_271)">
<path fill-rule="evenodd" clip-rule="evenodd" d="M23.2844 15.4585C22.6634 15.4585 22.1594 14.9545 22.1594 14.3335V9.78554C22.1594 7.28504 20.1269 5.24954 17.6264 5.24954C16.4099 5.29154 15.2699 5.71154 14.4089 6.56354C13.5479 7.41704 13.0709 8.55254 13.0664 9.76304V14.3335C13.0664 14.9545 12.5624 15.4585 11.9414 15.4585C11.3204 15.4585 10.8164 14.9545 10.8164 14.3335V9.78554C10.8239 7.94204 11.5364 6.24104 12.8249 4.96604C14.1119 3.68954 15.8399 3.05204 17.6309 2.99954C21.3674 2.99954 24.4094 6.04454 24.4094 9.78554V14.3335C24.4094 14.9545 23.9054 15.4585 23.2844 15.4585Z" fill="#4D23A6"/>
</g>
<mask id="mask1_14_271" style="mask-type:luminance" maskUnits="userSpaceOnUse" x="3" y="9" width="30" height="24">
<path fill-rule="evenodd" clip-rule="evenodd" d="M3 9.71191H32.2497V32.9994H3V9.71191Z" fill="white"/>
</mask>
<g mask="url(#mask1_14_271)">
<path fill-rule="evenodd" clip-rule="evenodd" d="M10.5118 11.9619C7.61076 11.9619 5.24976 14.3199 5.24976 17.2194V25.4934C5.24976 28.3914 7.61076 30.7494 10.5118 30.7494H24.7378C27.6388 30.7494 29.9998 28.3914 29.9998 25.4934V17.2194C29.9998 14.3199 27.6388 11.9619 24.7378 11.9619H10.5118ZM24.7378 32.9994H10.5118C6.37026 32.9994 2.99976 29.6319 2.99976 25.4934V17.2194C2.99976 13.0794 6.37026 9.71191 10.5118 9.71191H24.7378C28.8808 9.71191 32.2498 13.0794 32.2498 17.2194V25.4934C32.2498 29.6319 28.8808 32.9994 24.7378 32.9994Z" fill="#4D23A6"/>
</g>
</svg>
