<svg width="26" height="24" viewBox="0 0 26 24" fill="none" xmlns="http://www.w3.org/2000/svg">
<path fill-rule="evenodd" clip-rule="evenodd" d="M21.6962 9.9043H2.98414C2.54952 9.9043 2.19678 9.5683 2.19678 9.1543C2.19678 8.7403 2.54952 8.4043 2.98414 8.4043H21.6962C22.1308 8.4043 22.4835 8.7403 22.4835 9.1543C22.4835 9.5683 22.1308 9.9043 21.6962 9.9043Z" fill="black"/>
<path fill-rule="evenodd" clip-rule="evenodd" d="M17.0084 13.8096C16.5737 13.8096 16.2168 13.4736 16.2168 13.0596C16.2168 12.6456 16.5643 12.3096 16.9989 12.3096H17.0084C17.443 12.3096 17.7957 12.6456 17.7957 13.0596C17.7957 13.4736 17.443 13.8096 17.0084 13.8096Z" fill="black"/>
<path fill-rule="evenodd" clip-rule="evenodd" d="M12.3498 13.8096C11.9152 13.8096 11.5582 13.4736 11.5582 13.0596C11.5582 12.6456 11.9057 12.3096 12.3403 12.3096H12.3498C12.7844 12.3096 13.1372 12.6456 13.1372 13.0596C13.1372 13.4736 12.7844 13.8096 12.3498 13.8096Z" fill="black"/>
<path fill-rule="evenodd" clip-rule="evenodd" d="M7.68141 13.8096C7.24678 13.8096 6.88879 13.4736 6.88879 13.0596C6.88879 12.6456 7.23733 12.3096 7.67196 12.3096H7.68141C8.11604 12.3096 8.46878 12.6456 8.46878 13.0596C8.46878 13.4736 8.11604 13.8096 7.68141 13.8096Z" fill="black"/>
<path fill-rule="evenodd" clip-rule="evenodd" d="M17.0084 17.6963C16.5737 17.6963 16.2168 17.3603 16.2168 16.9463C16.2168 16.5323 16.5643 16.1963 16.9989 16.1963H17.0084C17.443 16.1963 17.7957 16.5323 17.7957 16.9463C17.7957 17.3603 17.443 17.6963 17.0084 17.6963Z" fill="black"/>
<path fill-rule="evenodd" clip-rule="evenodd" d="M12.3498 17.6963C11.9152 17.6963 11.5582 17.3603 11.5582 16.9463C11.5582 16.5323 11.9057 16.1963 12.3403 16.1963H12.3498C12.7844 16.1963 13.1372 16.5323 13.1372 16.9463C13.1372 17.3603 12.7844 17.6963 12.3498 17.6963Z" fill="black"/>
<path fill-rule="evenodd" clip-rule="evenodd" d="M7.68141 17.6963C7.24678 17.6963 6.88879 17.3603 6.88879 16.9463C6.88879 16.5323 7.23733 16.1963 7.67196 16.1963H7.68141C8.11604 16.1963 8.46878 16.5323 8.46878 16.9463C8.46878 17.3603 8.11604 17.6963 7.68141 17.6963Z" fill="black"/>
<path fill-rule="evenodd" clip-rule="evenodd" d="M16.5803 5.791C16.1457 5.791 15.793 5.455 15.793 5.041V1.75C15.793 1.336 16.1457 1 16.5803 1C17.015 1 17.3677 1.336 17.3677 1.75V5.041C17.3677 5.455 17.015 5.791 16.5803 5.791Z" fill="black"/>
<path fill-rule="evenodd" clip-rule="evenodd" d="M8.09962 5.791C7.665 5.791 7.31226 5.455 7.31226 5.041V1.75C7.31226 1.336 7.665 1 8.09962 1C8.53425 1 8.88699 1.336 8.88699 1.75V5.041C8.88699 5.455 8.53425 5.791 8.09962 5.791Z" fill="black"/>
<mask id="mask0_14_139" style="mask-type:luminance" maskUnits="userSpaceOnUse" x="2" y="2" width="21" height="21">
<path fill-rule="evenodd" clip-rule="evenodd" d="M2.09961 2.5791H22.5711V22.5H2.09961V2.5791Z" fill="white"/>
</mask>
<g mask="url(#mask0_14_139)">
<path fill-rule="evenodd" clip-rule="evenodd" d="M7.89568 4.0791C5.17349 4.0791 3.67434 5.4621 3.67434 7.9731V17.0221C3.67434 19.5881 5.17349 21.0001 7.89568 21.0001H16.7751C19.4973 21.0001 20.9964 19.6141 20.9964 17.0981V7.9731C21.0006 6.7381 20.6521 5.7781 19.9602 5.1181C19.2485 4.4381 18.1514 4.0791 16.7845 4.0791H7.89568ZM16.7751 22.5001H7.89568C4.32103 22.5001 2.09961 20.4011 2.09961 17.0221V7.9731C2.09961 4.6451 4.32103 2.5791 7.89568 2.5791H16.7845C18.5787 2.5791 20.0621 3.0911 21.0751 4.0581C22.0588 4.9991 22.5764 6.3521 22.5711 7.9751V17.0981C22.5711 20.4301 20.3497 22.5001 16.7751 22.5001Z" fill="black"/>
</g>
</svg>
