<svg width="36" height="36" viewBox="0 0 36 36" fill="none" xmlns="http://www.w3.org/2000/svg">
<path fill-rule="evenodd" clip-rule="evenodd" d="M4.93308 6.13178L5.0419 6.01805C7.93303 3.12666 9.81577 2.36027 11.8246 3.51543C12.4024 3.84772 12.9442 4.31285 13.6808 5.06102L15.9404 7.40405C17.1884 8.76589 17.4721 10.0722 17.0657 11.602L17.0098 11.8045L16.9476 12.0059L16.6456 12.8921C15.999 14.8796 16.269 16.0009 18.5692 18.3006C20.9612 20.692 22.0778 20.8877 24.2186 20.1396L24.6001 20.007L25.0615 19.8571L25.2634 19.8011C26.8895 19.3673 28.263 19.7135 29.7198 21.1692L31.5404 22.9278L32.0763 23.4549C32.6705 24.0608 33.0632 24.5409 33.3533 25.0483C34.5012 27.0566 33.734 28.9381 30.7595 31.9016L30.4765 32.1883C30.0324 32.6163 29.6175 32.923 29.0079 33.2124C27.9847 33.6982 26.7759 33.8813 25.3713 33.686C21.9101 33.2047 17.5202 30.4737 11.9578 24.9127C11.505 24.46 11.0714 24.0161 10.6564 23.5807L9.85121 22.7214C2.30644 14.5243 1.64083 9.48882 4.73276 6.33076L4.93308 6.13178ZM11.8596 6.42139C11.3709 5.9396 11.0159 5.6459 10.703 5.46594C10.0107 5.06784 9.26324 5.23612 7.87994 6.42671L7.44529 6.81502C7.36948 6.885 7.29193 6.95765 7.21257 7.03303L6.71416 7.51847L6.66926 7.57458L6.33136 7.91405C5.51484 8.74806 5.12806 9.76596 5.46136 11.5165C6.00827 14.389 8.51163 18.2858 13.5486 23.3215C18.7969 28.5685 22.7957 31.0562 25.6812 31.4575C27.3633 31.6914 28.2213 31.284 29.0963 30.3876L29.7636 29.7142C30.0765 29.3868 30.3439 29.09 30.5696 28.8189L30.8776 28.4309C31.6645 27.3826 31.7364 26.7537 31.3999 26.1649C31.2718 25.9409 31.0855 25.6953 30.8143 25.3951L30.4465 25.0065L30.2288 24.7887L27.9319 22.5708C27.1644 21.863 26.6398 21.7626 25.8435 21.975L25.6135 22.0412L24.6621 22.3641C21.9019 23.2556 19.9107 22.8233 16.9784 19.8918C13.9414 16.8556 13.5853 14.8281 14.6028 11.9088L14.6681 11.7212L14.8486 11.1773L14.9373 10.8306C15.0947 10.0762 14.9151 9.55016 14.104 8.73901C14.0706 8.70562 14.0333 8.66799 13.9927 8.6268L11.8596 6.42139Z" fill="#4D23A6"/>
</svg>
