<svg width="36" height="36" viewBox="0 0 36 36" fill="none" xmlns="http://www.w3.org/2000/svg">
<mask id="mask0_14_353" style="mask-type:luminance" maskUnits="userSpaceOnUse" x="3" y="3" width="30" height="30">
<path fill-rule="evenodd" clip-rule="evenodd" d="M3.00061 3.00015H32.9301V32.931H3.00061V3.00015Z" fill="white"/>
</mask>
<g mask="url(#mask0_14_353)">
<path fill-rule="evenodd" clip-rule="evenodd" d="M11.4771 5.25C7.69561 5.25 5.25061 7.8435 5.25061 11.856V24.075C5.25061 28.089 7.69561 30.681 11.4771 30.681H24.4461C28.2336 30.681 30.6801 28.089 30.6801 24.075V11.856C30.6831 9.8115 30.0591 8.1045 28.8771 6.921C27.7851 5.8275 26.2566 5.25 24.4536 5.25H11.4771ZM24.4461 32.931H11.4771C6.40711 32.931 3.00061 29.3715 3.00061 24.075V11.856C3.00061 6.5595 6.40711 3 11.4771 3H24.4536C26.8656 3 28.9461 3.8055 30.4686 5.331C32.0601 6.924 32.9331 9.2415 32.9301 11.8575V24.075C32.9301 29.3715 29.5206 32.931 24.4461 32.931Z" fill="#4D23A6"/>
</g>
<path fill-rule="evenodd" clip-rule="evenodd" d="M13.2846 11.5342C12.3786 11.5342 11.6421 12.2707 11.6421 13.1782C11.6421 14.0842 12.3786 14.8207 13.2861 14.8207C14.1921 14.8207 14.9301 14.0842 14.9301 13.1797C14.9286 12.2722 14.1906 11.5357 13.2846 11.5342ZM13.2861 17.0707C11.1381 17.0707 9.39209 15.3247 9.39209 13.1782C9.39209 11.0302 11.1381 9.28424 13.2861 9.28424C15.4326 9.28574 17.1786 11.0317 17.1801 13.1767V13.1782C17.1801 15.3247 15.4341 17.0707 13.2861 17.0707Z" fill="#4D23A6"/>
<path fill-rule="evenodd" clip-rule="evenodd" d="M5.62352 30.1669C5.43752 30.1669 5.24852 30.1204 5.07452 30.0229C4.53152 29.7184 4.34102 29.0329 4.64402 28.4914C4.73402 28.3294 6.88652 24.5239 9.25502 22.5739C11.133 21.0289 13.155 21.8779 14.784 22.5634C15.7425 22.9669 16.6485 23.3479 17.5185 23.3479C18.3165 23.3479 19.317 21.9379 20.202 20.6944C21.4305 18.9604 22.8255 16.9984 24.8685 16.9984C28.1235 16.9984 30.933 19.9024 32.4435 21.4624L32.6175 21.6424C33.0495 22.0879 33.039 22.8004 32.5935 23.2339C32.151 23.6674 31.4385 23.6569 31.0035 23.2099L30.8265 23.0269C29.5485 21.7054 27.1695 19.2484 24.8685 19.2484C23.9865 19.2484 22.9515 20.7079 22.035 21.9964C20.778 23.7664 19.4775 25.5979 17.5185 25.5979C16.194 25.5979 14.9805 25.0879 13.911 24.6364C12.21 23.9194 11.439 23.6899 10.6845 24.3109C8.63852 25.9969 6.62552 29.5579 6.60602 29.5924C6.40052 29.9599 6.01802 30.1669 5.62352 30.1669Z" fill="#4D23A6"/>
</svg>
