<svg width="36" height="36" viewBox="0 0 36 36" fill="none" xmlns="http://www.w3.org/2000/svg">
<mask id="mask0_14_191" style="mask-type:luminance" maskUnits="userSpaceOnUse" x="6" y="21" width="24" height="12">
<path fill-rule="evenodd" clip-rule="evenodd" d="M6 21.7441H29.7598V32.8051H6V21.7441Z" fill="white"/>
</mask>
<g mask="url(#mask0_14_191)">
<path fill-rule="evenodd" clip-rule="evenodd" d="M17.8814 23.9941C11.4899 23.9941 8.24988 25.0921 8.24988 27.2596C8.24988 29.4466 11.4899 30.5551 17.8814 30.5551C24.2714 30.5551 27.5099 29.4571 27.5099 27.2896C27.5099 25.1026 24.2714 23.9941 17.8814 23.9941ZM17.8814 32.8051C14.9429 32.8051 5.99988 32.8051 5.99988 27.2596C5.99988 22.3156 12.7814 21.7441 17.8814 21.7441C20.8199 21.7441 29.7599 21.7441 29.7599 27.2896C29.7599 32.2336 22.9799 32.8051 17.8814 32.8051Z" fill="#4D23A6"/>
</g>
<mask id="mask1_14_191" style="mask-type:luminance" maskUnits="userSpaceOnUse" x="9" y="3" width="17" height="16">
<path fill-rule="evenodd" clip-rule="evenodd" d="M9.91479 3.00015H25.8448V18.9281H9.91479V3.00015Z" fill="white"/>
</mask>
<g mask="url(#mask1_14_191)">
<path fill-rule="evenodd" clip-rule="evenodd" d="M17.8813 5.14154C14.6698 5.14154 12.0568 7.75304 12.0568 10.9645C12.0463 14.1655 14.6398 16.7755 17.8378 16.7875L17.8813 17.8585V16.7875C21.0913 16.7875 23.7028 14.1745 23.7028 10.9645C23.7028 7.75304 21.0913 5.14154 17.8813 5.14154ZM17.8813 18.928H17.8333C13.4503 18.9145 9.89984 15.34 9.91484 10.96C9.91484 6.57254 13.4878 2.99954 17.8813 2.99954C22.2733 2.99954 25.8448 6.57254 25.8448 10.9645C25.8448 15.3565 22.2733 18.928 17.8813 18.928Z" fill="#4D23A6"/>
</g>
</svg>
