<svg width="70" height="70" viewBox="0 0 70 70" fill="none" xmlns="http://www.w3.org/2000/svg">
<path fill-rule="evenodd" clip-rule="evenodd" d="M19.8275 5.25C10.9725 5.25 5.25 11.3155 5.25 20.706V49.294C5.25 58.6845 10.9725 64.75 19.8275 64.75H50.1655C59.024 64.75 64.75 58.6845 64.75 49.294V20.706C64.75 11.3155 59.024 5.25 50.169 5.25H19.8275ZM50.1655 70H19.8275C7.966 70 0 61.677 0 49.294V20.706C0 8.323 7.966 0 19.8275 0H50.169C62.0305 0 70 8.323 70 20.706V49.294C70 61.677 62.0305 70 50.1655 70Z" fill="white"/>
<path fill-rule="evenodd" clip-rule="evenodd" d="M30.8472 45.9305C30.1787 45.9305 29.5032 45.675 28.9922 45.1605L20.6832 36.855C19.6577 35.8295 19.6577 34.1705 20.6832 33.145C21.7087 32.1195 23.3677 32.1195 24.3932 33.145L30.8472 39.592L45.6032 24.8395C46.6287 23.814 48.2877 23.814 49.3132 24.8395C50.3387 25.865 50.3387 27.524 49.3132 28.5495L32.7022 45.1605C32.1912 45.675 31.5192 45.9305 30.8472 45.9305Z" fill="white"/>
</svg>
