<svg width="36" height="36" viewBox="0 0 36 36" fill="none" xmlns="http://www.w3.org/2000/svg">
<path fill-rule="evenodd" clip-rule="evenodd" d="M11.4975 5.25C7.7025 5.25 5.25 7.8495 5.25 11.874V24.126C5.25 28.1505 7.7025 30.75 11.4975 30.75H24.4995C28.296 30.75 30.75 28.1505 30.75 24.126V11.874C30.75 7.8495 28.2975 5.25 24.501 5.25H11.4975ZM24.4995 33H11.4975C6.414 33 3 29.433 3 24.126V11.874C3 6.567 6.414 3 11.4975 3H24.501C29.5845 3 33 6.567 33 11.874V24.126C33 29.433 29.5845 33 24.4995 33Z" fill="#4D23A6"/>
<path fill-rule="evenodd" clip-rule="evenodd" d="M23.0852 22.1514C22.8887 22.1514 22.6907 22.1004 22.5092 21.9939L17.4227 18.9594C17.0837 18.7554 16.8737 18.3879 16.8737 17.9934V11.4504C16.8737 10.8294 17.3777 10.3254 17.9987 10.3254C18.6197 10.3254 19.1237 10.8294 19.1237 11.4504V17.3544L23.6627 20.0589C24.1952 20.3784 24.3707 21.0684 24.0527 21.6024C23.8412 21.9549 23.4677 22.1514 23.0852 22.1514Z" fill="#4D23A6"/>
</svg>
