<svg width="31" height="30" viewBox="0 0 31 30" fill="none" xmlns="http://www.w3.org/2000/svg">
<path fill-rule="evenodd" clip-rule="evenodd" d="M29.833 19.8434H23.761C20.9155 19.8434 18.5995 17.5289 18.598 14.6849C18.598 11.8379 20.914 9.52189 23.761 9.52039H29.833C30.454 9.52039 30.958 10.0244 30.958 10.6454C30.958 11.2664 30.454 11.7704 29.833 11.7704H23.761C22.1545 11.7719 20.848 13.0784 20.848 14.6834C20.848 16.2869 22.156 17.5934 23.761 17.5934H29.833C30.454 17.5934 30.958 18.0974 30.958 18.7184C30.958 19.3394 30.454 19.8434 29.833 19.8434Z" fill="#4D23A6"/>
<path fill-rule="evenodd" clip-rule="evenodd" d="M24.4475 15.7154H23.9795C23.3585 15.7154 22.8545 15.2114 22.8545 14.5904C22.8545 13.9694 23.3585 13.4654 23.9795 13.4654H24.4475C25.0685 13.4654 25.5725 13.9694 25.5725 14.5904C25.5725 15.2114 25.0685 15.7154 24.4475 15.7154Z" fill="#4D23A6"/>
<mask id="mask0_61_87" style="mask-type:luminance" maskUnits="userSpaceOnUse" x="0" y="0" width="31" height="30">
<path fill-rule="evenodd" clip-rule="evenodd" d="M0 0.5H30.9579V29.2593H0V0.5Z" fill="white"/>
</mask>
<g mask="url(#mask0_61_87)">
<path fill-rule="evenodd" clip-rule="evenodd" d="M8.99639 2.75C5.27639 2.75 2.24939 5.777 2.24939 9.497V20.2625C2.24939 23.9825 5.27639 27.0095 8.99639 27.0095H21.9624C25.6824 27.0095 28.7079 23.9825 28.7079 20.2625V9.497C28.7079 5.777 25.6824 2.75 21.9624 2.75H8.99639ZM21.9624 29.2595H8.99639C4.03589 29.2595 -0.000610352 25.223 -0.000610352 20.2625V9.497C-0.000610352 4.535 4.03589 0.5 8.99639 0.5H21.9624C26.9229 0.5 30.9579 4.535 30.9579 9.497V20.2625C30.9579 25.223 26.9229 29.2595 21.9624 29.2595Z" fill="#4D23A6"/>
</g>
<path fill-rule="evenodd" clip-rule="evenodd" d="M16.0268 9.55716H7.92834C7.30734 9.55716 6.80334 9.05316 6.80334 8.43216C6.80334 7.81116 7.30734 7.30716 7.92834 7.30716H16.0268C16.6478 7.30716 17.1518 7.81116 17.1518 8.43216C17.1518 9.05316 16.6478 9.55716 16.0268 9.55716Z" fill="#4D23A6"/>
</svg>
